<?xml version="1.0" encoding="UTF-8"?>
<svg id="Camada_2" data-name="Camada 2" xmlns="http://www.w3.org/2000/svg" viewBox="0 0 439.57 209.69">
  <defs>
    <style>
      .cls-1 {
        fill: #fff;
      }

      .cls-2 {
        font-size: 54.52px;
        letter-spacing: -.01em;
      }

      .cls-2, .cls-3 {
        font-family: XenaraRg-Regular, Xenara;
      }

      .cls-2, .cls-4 {
        fill: #01d8dd;
      }

      .cls-3 {
        fill: #393e41;
        font-size: 108.51px;
        letter-spacing: -.01em;
      }

      .cls-5 {
        fill: #005282;
      }
    </style>
  </defs>
  <g id="logos">
    <g>
      <g>
        <rect class="cls-5" x="86.93" y=".42" width="29.53" height="199.37" rx="14.77" ry="14.77"/>
        <circle class="cls-1" cx="101.87" cy="184.77" r="11.18"/>
        <path class="cls-4" d="M133.01,122.95H43.34L113.94,23.3c4.71-6.65,3.14-15.87-3.51-20.58-6.65-4.71-15.87-3.14-20.58,3.51-2.67,3.77-5.34,7.54-8.01,11.31-6.48,9.14-12.95,18.28-19.43,27.42-7.99,11.28-15.98,22.55-23.97,33.83-7.21,10.18-14.42,20.36-21.64,30.53-3.45,4.87-6.83,9.8-10.35,14.63C3.42,128.12.12,132.57,0,137.95c-.07,3.4,1.24,6.79,3.5,9.33,4.23,4.76,10.85,5.62,16.88,5.32,3.78-.19,7.54-.05,11.32-.08,15.84-.11,31.69-.06,47.53-.06h53.79c8.15,0,14.77-6.61,14.77-14.77s-6.61-14.77-14.77-14.77Z"/>
        <circle class="cls-1" cx="101.87" cy="14.8" r="11.18"/>
        <circle class="cls-1" cx="132.54" cy="137.49" r="11.18"/>
        <circle class="cls-1" cx="14.93" cy="137.49" r="11.18"/>
      </g>
      <text class="cls-2" transform="translate(297.06 198.57)"><tspan x="0" y="0">cloud</tspan></text>
      <text class="cls-3" transform="translate(153.01 151.83)"><tspan x="0" y="0">smart</tspan></text>
    </g>
  </g>
</svg>